<?xml version="1.0" encoding="UTF-8"?>
<svg id="Layer_1" data-name="Layer 1" xmlns="http://www.w3.org/2000/svg" viewBox="0 0 717.83 662.71">
  <defs>
    <style>
      .cls-1 {
        fill: #336733;
      }
    </style>
  </defs>
  <path class="cls-1" d="M537.85,243.62c10.3-9.47,17.67-11.13,31.89-9.09,13.87,1.99,15.9,16.3,16.75,28.25,1.19,16.87.63,38.92.06,56.04-1.12,33.26-4.23,80.16-41.06,93.94-13.39,5.01-54.24,4.9-69.37,3.39-40.13-4.01-31.7-50.13-34.73-79.26-2-19.21-10.36-65.71-24.34-78.66-1.48-1.37-5.76-3.92-5.55-.47.43,7.27,3.49,16.07,4,24.02,1.37,21.18.19,46.77-3.3,67.68-4.16,24.91-14.88,64.09-45.2,66.8-32.83,2.94-69.75-2.2-103.03.06-9.66-.58-18.93-8.98-22.2-17.8-9.62-25.95,9.96-60.46,22.94-82.55,12.85-21.86,16.92-29.31,40.83-40.17,27.33-12.41,58.33-18.96,87.25-26.75,1.71-.22,2.29-2.93,1.71-3.77-.5-.73-15.14-2.75-17.51-3-34.25-3.65-87.86-4-117.41,15.57-26.28,17.41-31.42,61.34-45.71,88.29-5.09,9.6-20.09,34.89-33.33,26.58-5.33-3.35-19.93-19.86-24.56-25.44-23.89-28.79-21.24-36.53-22.44-72.56-1.56-46.61-9.48-76.96,39.29-99.63,22.03-10.24,75.68-25.38,99.18-22.84,10.54,1.14,29.31,12.45,38.8,18.2,25.98,15.74,51.07,37.18,77.39,51.61,1.84,1.01,9.56,6.43,10.31,2.68.54-2.73-15.42-24.97-18.19-28.8-18.02-24.92-53.83-68.96-86.28-71.72-41.05-3.49-60.07,7.82-96.77,18.3-11.86,3.39-37.32,9.7-40.53-8s11.52-47.82,18.91-63.63c12.69-27.16,28.7-57.71,60.08-65.92,24.4-6.39,86.02-5.9,110.79-.23,44.42,10.17,56.35,41.53,67.28,81.72,12.19,44.82,5.4,83.53,3.67,128.25-.67,17.2,7.1,2.13,10.22-4.77,15.46-34.24,22.59-74.64,19.81-112.17-1.54-20.81-9.28-37.41-8.42-60.01.82-21.56,7.25-29.59,28.21-34.23,18.26-4.04,71.46-4.36,90.73-2.28,25.04,2.7,27.58,21.21,28.54,42.46,1.19,26.34-4.47,51.69-11.13,76.97-17.18,65.22-35.35,108.75-109.54,118.46-11.35,1.48-21.98.25-32.92,1.08-5.71.43-5.22,2.44-.73,4.82,12.06,6.38,56.86,17.46,70.73,18.27,21.46,1.26,21.89-7.73,34.89-19.69Z"/>
  <path class="cls-1" d="M535.5,569.27h21.5c.27,0,2.12,1.91,2.26,2.62-1.18,5.56-.78,11.28-.81,16.93-.02,3.75,2.43,6.13-1.57,8.33l-57.71,1.08-1.67,6.04h49.5c.33,0,1.52,1.32,2.5,1v16.5c0,.18-2.32,2.5-2.5,2.5h-50.5c1.65,1.48.6,8,1,8h62c2.49,4.73-.05,9.44-.04,13.55.02,4.68,2.49,9.4.04,14.45h-86.5c-.35,0-1.19-1.12-1.36-1.66-1.56-4.85,5.94-27.75,5.95-35.84.03-14.22-5.22-32.32-6.09-47.02-.08-1.36-.31-6.48,1.5-6.48h33c3.79-4.9,2.49-11.32,9.94-12.06,2.96-.29,24.57-.24,25.62.5,5.16,3.61-4.63,8.88-6.06,11.56ZM523.5,573.27h-15c-.38,0-1.69,5.99-3,6.99,7.9.69,13.69.32,18-6.99Z"/>
  <path class="cls-1" d="M503,460.27c4.84.82,1.52,8.52,1.45,12.45-.05,2.99,2.56,15.55-1.45,15.55h-58.5c-.38,0-.99,7,.5,7h49c.11,0,1.5,1.39,1.5,1.5v17c0,.11-1.39,1.5-1.5,1.5h-50.5v7h59.5c.38,0,3.5,2.27,3.5,2.5v25c0,.11-1.39,1.5-1.5,1.5h-85c-.36,0-1.16-1.1-1.34-1.66-1.95-6.06,5.13-26.22,5.47-34,.6-13.56-5.07-32.53-5.62-46.85-.06-1.6-.55-8.49,1.49-8.49h83Z"/>
  <path class="cls-1" d="M693,460.27c12.6,1.49,23.18,10.61,24.49,23.51,1.77,17.45-2.97,31.98-21,37l19.49,21.51c.8,4.01,2.2,8.44-2.93,9.03-3.14.36-27.3.23-28.56-.54l-13.99-28.51h-21c1.15,7.55,6.65,18.38,6.96,25.63.05,1.15-.41,3.37-1.46,3.37h-31c-.35,0-1.19-1.12-1.36-1.66-1.5-4.67,5.47-25.66,5.91-32.8.9-14.79-5.13-34.65-6.04-50.06-.08-1.36-.31-6.48,1.5-6.48h69ZM648.5,501.27h40.5c4.94,0,11.2-6.83,3.52-10.52-1.27-.61-8.47-2.48-9.52-2.48h-33.5l-1,13Z"/>
  <path class="cls-1" d="M198.15,537.91c-27.19,26.42-90.5,15.67-94.64-26.16-4.53-45.75,35.42-63.77,75-53,35.21,9.59,45.57,53.96,19.64,79.16ZM162.16,484.65c-5.71-.22-15.07.73-20.68,2.1-13.86,3.4-29.16,14.77-13.46,27.49,15.54,12.58,51.3,12.8,63.48-4.47,11-15.58-18.14-24.7-29.34-25.13Z"/>
  <path class="cls-1" d="M23.86,513.91c11.63,11.9,39.97,10.12,54.85,6.07,6.9-1.88,13.05-5.46,19.78-7.71-.25,4.34,6.75,27.96,5.06,29.48-28.23,14.55-82.07,17.4-97.74-16.29-3.45-7.43-7.21-21.57-5.3-29.5.06-.23.88-1.22,1.57-3.74,8.53-30.87,37.92-37.91,66.9-35.94,5.29.36,31.57,5.33,34.06,8.94,1.55,2.25-4.72,25.52-7.12,29.01-17.76-9.65-41.36-13.22-60.88-6.91-11.44,3.7-21.73,15.81-11.2,26.58Z"/>
  <path class="cls-1" d="M254.49,605.26c-3.02-.98-5.36-2.78-8.47-4.02-16.77-6.69-42.35-9.43-58.84-.8-11,5.75-13.46,16.72-3.69,25.33,15.8,13.91,54.26,7.63,71.48-2.51,1.16.61,1.13,1.54,1.48,2.55.95,2.76,5.45,24.2,4.93,25.78-.76,2.32-15.92,7.23-19.05,8.01-35.25,8.87-83.89.19-83.93-44.84-.04-45.72,49.66-53.3,85.1-45,3.1.72,17.17,4.82,17.89,7.18,1.24,4.03-6.85,22.64-6.9,28.33Z"/>
  <path class="cls-1" d="M512,460.27h31c1.55,0,1.43,3.01,1.29,4.22-1.53,14.17-9.85,32.14-12.58,46.57-1.45,13.34,24.98,14.47,34.34,14.26,6.43-.15,27.12-2.74,29.25-9.75l-12.57-52c-.31-1.05,1.93-3.29,2.28-3.29h30c2.14,0,1.62,10.33,1.54,12.54-.41,12.15-1.7,27.81-3.05,39.95-2.64,23.74-13.11,37.13-37.61,40.39-19.84,2.64-46.57-.24-56.77-19.99-6.08-11.77-8.12-48.75-8.65-63.34-.07-1.82-.49-9.55,1.54-9.55Z"/>
  <path class="cls-1" d="M246,460.27c.84.26,2.38,2.88,2.02,4.1-1.62,9.6-14.61,43.62-12.32,51.19,3.29,10.87,37.81,9.97,46.85,8.27,9.78-1.85,17.06-3.51,15.69-14.8-1.58-13.01-10.66-31.16-11.66-43.38-.11-1.39-.25-5.37,1.42-5.37h31.5c1.85,7.18-.48,14.39-.99,21.51-2.88,39.97.78,72.48-51.51,72.49-52.93.01-48.47-34.51-51.51-74.49-.49-6.46-3.29-13.16-.99-19.51h31.5Z"/>
  <path class="cls-1" d="M345,660.27c-2.29-.74-5.74-19.69-7.11-20.06l-35.45.5-6.6,19.61c-8.57-1.18-20.74,1.46-28.81-.07-1.6-.3-2.75-1.08-3.37-2.61l45-85.71c1.35-4.3,20.77-3.09,22.36-1.67l44.71,84.29c1.26,1.3.89,5.72-.72,5.72h-30ZM328.5,619.27l-8.01-17c-1.56-1.18-8.02,16.17-9.99,17h18Z"/>
  <path class="cls-1" d="M406.5,606.27h50.5c3.32,0,3.24,16.96,2,19-.27.45-2.72,2-3,2h-49.5c.31,2.67.81,5.41,1.49,8.01,2.06,7.88,7.01,17.06,5.51,24.99h-31.5c-.36,0-1.17-1.11-1.35-1.66-1.94-5.99,5.5-26.29,5.75-33.95.44-13.67-5.01-33.38-5.89-47.9-.09-1.47-.44-7.49,1.49-7.49h84c.56,0,1.53,1.68,1.5,2.5-1.15,6.89.82,15.57.05,22.06-.2,1.69-.09,2.28-1.63,3.37-5.16,3.64-47.84-.54-56.93,1.07-3.84.51-2.26,5.11-2.5,8Z"/>
  <path class="cls-1" d="M358,460.27c.48.15,1.21,1.1,1.38,1.67l-8.88,61.33c3.96.75,7.76-.91,11.46-1.04,12.28-.43,34.69-1.54,46.09,0,1.32.18,4.45,1.28,4.45,2.55v25c0,.11-1.39,1.5-1.5,1.5h-84.5c-.26-1.49-.86-2.6-.76-4.21.59-10.02,5.64-21.91,5.82-32.25.15-8.82-2.07-21.75-3.18-30.91-.38-3.14-5.11-23.62-1.38-23.62,5.92,0,27.23-1.18,31,0Z"/>
</svg>