<?xml version="1.0" encoding="utf-8"?>
<!-- Generator: Adobe Illustrator 19.2.1, SVG Export Plug-In . SVG Version: 6.00 Build 0)  -->
<svg version="1.1" id="layer" xmlns="http://www.w3.org/2000/svg" xmlns:xlink="http://www.w3.org/1999/xlink" x="0px" y="0px"
	 viewBox="0 0 652 652" style="enable-background:new 0 0 652 652;" xml:space="preserve">
<style type="text/css">
	.st0{fill:#231F20;}
</style>
<g>
	<g>
		<path class="st0" d="M579.6,235.7V305l-167.9-68c-4.2-1.8-9.2-4.5-16.6-1.8l0,0l-100.8,36.6l-100.8-36.6h-45.8l115.5,44.7
			l-65.6,25.2H40v-69.8H20.8v88.8h127.4l-0.4,0.2h49l97.4-36.5l97.4,36.5h48.9l-115.3-44.5l70.4-27.1l179.2,71.3l23.9,0.3l0.1-88.7
			H579.6z"/>
		<g>
			<path class="st0" d="M23.4,380.3h3.4v28.5h37.8v2.8H23.4V380.3z"/>
			<path class="st0" d="M159.7,380.3v18.6c0,8.4-3.3,12.6-16.7,12.6h-15.4c-13.3,0-16.7-4.2-16.7-12.6v-18.6h3.4v18.3
				c0,7.6,2.4,10.2,13.7,10.2h14.6c11.3,0,13.7-2.7,13.7-10.2v-18.3H159.7z"/>
			<path class="st0" d="M262.7,411.6h-5.2l-22.6-13.9l-22.6,13.9h-5.2l25.1-15.5l-24.9-15.7h5.2l22.5,14.1l22.8-14.1h5l-25,15.6
				L262.7,411.6z"/>
			<path class="st0" d="M313.6,411.6v-31.2h3.4v31.2H313.6z"/>
			<path class="st0" d="M372.1,380.3h3.4v28.5h37.8v2.8h-41.2V380.3z"/>
			<path class="st0" d="M477.9,411.6c-16.3,0-19.3-6.5-19.3-15.7c0-9.3,3.2-15.6,19.3-15.6h14c16.1,0,19.3,6.4,19.3,15.6
				c0,9.1-3,15.7-19.3,15.7H477.9z M478.5,382.9c-13.6,0-16.4,4.2-16.4,13c0,8.5,2.7,13,16.4,13h13c13.8,0,16.4-4.6,16.4-13
				c0-8.9-2.8-13-16.4-13H478.5z"/>
			<path class="st0" d="M561.6,411.6v-31.2h4.7l37.2,28.6v-28.6h3.4v31.2h-4.7L565.1,383v28.6H561.6z"/>
		</g>
	</g>
	<g>
		<g>
			<path class="st0" d="M613.7,235.2c2.1,0,3.5,0.1,4.3,0.2c0.9,0.2,1.5,0.4,1.8,0.8c0.3,0.3,0.4,0.5,0.5,0.9s0.3,0.8,0.3,1.4
				c0.1,0.8,0.2,1.7,0.2,2.8c0,1.5-0.1,2.6-0.2,3.4c-0.2,0.8-0.3,1.3-0.7,1.6c-0.3,0.3-0.9,0.6-1.7,0.8s-2.2,0.2-4,0.2
				c-0.9,0-1.9,0-3-0.1c-1.1,0-1.8-0.1-2.2-0.1c-0.6-0.1-1-0.2-1.4-0.3c-0.3-0.2-0.7-0.3-0.9-0.6c-0.3-0.3-0.6-0.9-0.7-1.5
				c-0.1-0.7-0.2-1.8-0.2-3.4c0-1.9,0.1-3.3,0.4-4c0.3-0.9,1-1.5,2.2-1.6C609.5,235.3,611.3,235.2,613.7,235.2z M612.8,236.2
				c-1.7,0-2.9,0.1-3.6,0.2c-0.7,0.1-1.2,0.3-1.5,0.6c-0.3,0.3-0.5,0.7-0.6,1.3c-0.1,0.6-0.2,1.5-0.2,2.9c0,1.5,0,2.5,0.1,3.1
				s0.3,1,0.5,1.3c0.2,0.3,0.4,0.3,0.8,0.4c0.3,0.1,0.8,0.2,1.4,0.2c0.3,0,1.5,0.1,3.8,0.1c2.1-0.1,3.3-0.1,3.7-0.1s0.8-0.1,1.1-0.2
				c0.3-0.1,0.6-0.3,0.9-0.5c0.3-0.3,0.4-0.5,0.5-0.9c0.2-0.7,0.3-1.9,0.3-3.5s-0.1-2.8-0.3-3.4c-0.1-0.3-0.3-0.6-0.5-0.9
				c-0.3-0.3-0.6-0.3-0.9-0.4c-0.4-0.1-0.9-0.1-1.3-0.2C616.4,236.3,615,236.2,612.8,236.2z M608.9,244.9v-7.1h4.8
				c1.3,0,2.1,0,2.5,0.1c0.6,0.1,0.9,0.3,1.2,0.6c0.3,0.3,0.3,0.9,0.3,1.5c0,0.6-0.1,1-0.2,1.3c-0.2,0.3-0.4,0.4-0.9,0.5
				c0.4,0.1,0.7,0.3,0.8,0.5c0.1,0.3,0.2,0.8,0.2,1.5v1.1h-1.2v-0.8c0-0.6,0-1-0.1-1.2c0-0.2-0.1-0.3-0.3-0.4
				c-0.2-0.1-0.3-0.2-0.5-0.3c-0.3,0-0.9,0-1.9-0.1h-3.6v2.7L608.9,244.9L608.9,244.9z M610.1,241.2h3.6c0.9,0,1.6,0,1.9,0
				c0.3,0,0.5-0.1,0.7-0.2c0.3-0.2,0.3-0.5,0.3-1s-0.1-0.8-0.3-0.9c-0.2-0.1-0.3-0.2-0.7-0.2s-0.9-0.1-1.8-0.1h-3.6L610.1,241.2
				L610.1,241.2z"/>
		</g>
	</g>
</g>
</svg>
