<?xml version="1.0" encoding="UTF-8"?>
<svg id="Layer_1" data-name="Layer 1" xmlns="http://www.w3.org/2000/svg" viewBox="0 0 223.61 470.25">
  <path d="M53.22,305.02c9.04-22.53,10.63-47.27,15.19-71.07-7.88-11.7-20.34-20.58-27.57-32.73-22.01-36.94-4.74-78.04,27.26-101.81-8.4-26.56-12.4-57.07-21.28-83.17-1.49-4.38-7.33-12.53-7.33-13.29,0-3.47,22.34-4.02,24.95-.88l26.59,87.1c17.14-2.42,33.52-3.19,50.65.34,20.23-28.07,38.45-58.06,56.96-87.43,4.36-3.9,18.66-.68,24.97-1.69l-67.1,92.1c-.64,3.71.74,1.99,2.37,2.7,6.1,2.68,23.31,9.56,26,15.37,2.88,6.24-4.26,30.19-7.71,27.51-1.31-8.25-21.77-29.64-28.74-30.76-2.25-.36-2.71,1.17-3.98,2.36-5.57,5.25-24.35,33.06-28.3,40.56-2.18,4.15-4.14,8.85-5.64,13.3-3.42,10.16-12.34,45.15-12.63,54.69-.17,5.49,2.81,10.55,8.69,11.07-.29-15.52,9.37-34.94,9.91-49.51.13-3.45-4.48-12.44-.43-12.44h33.56l-20.81,90.39c4.99,11.07,15.16,18.95,21.53,30.23,27.23,48.2-6.51,101.04-56.65,113.47-.62,8.98-14.32,48.64-12.79,53.99,1.27,4.44,21.43,2.95,26.53,2.78,13.28-.45,29.46-2.13,42.83-3.64,21.99-2.5,44.08-6.98,65.6-11.85,1.61-.06,1.02,2.49.51,3.95s-11.26,20.63-12.12,21.52c-.92.95-2.5,1.05-3.76,1.26l-148.96.84,15.49-68.85c-13.3,3.27-63.82-19.71-66.86-30.51-1-3.54,3.43-22.89,5.3-26.74,1.14-2.35,1.85-3.53,4.74-2.99,6.91,25.18,35.03,44.56,60.32,47.48l27.02-121c.43-2.37-7.16-11.8-8.13-10.82-.88,11.11-6.03,22.71-6.93,33.63-.31,3.72,2.96,14.56-.83,14.56h-28.4ZM134.12,100.21c-13.09-2.13-26.58-2.91-39.59,0l12.07,43.01c2.04,1.57,26.81-38.48,27.52-43.02ZM75.58,194.86c6.46-25.87,6.91-45.04-.84-70.57-.71-2.34-1.53-8.23-4.28-8.59-19.73,25.26-18.89,57.03,5.12,79.16ZM97.99,387.63c41.5-13.46,52.15-62.97,23.22-94.63l-23.22,94.63Z"/>
</svg>