<?xml version="1.0" encoding="UTF-8"?>
<svg id="Layer_1" data-name="Layer 1" xmlns="http://www.w3.org/2000/svg" viewBox="0 0 3618 808.59">
  <path d="M1076,803.88h-178v-241l-3-3H180v244H0V124.88c0-23.56,33.95-70.69,51.98-86.02C96.37,1.1,124.72,5.91,179.08,3.97c256.28-9.17,514.98.43,771.37.47,59.42,7.17,125.55,73.72,125.55,134.45v665ZM896,453.88V174.88c0-35.5-36.77-65.58-71.02-64.98l-580.05-.1c-27.11,3.65-51.73,17.73-61.9,44.1-7.44,19.31-6.59,65.86-7.12,88.88-1.14,49.38.97,98.95,2.18,148.01.52,20.99-.55,42.11-.08,63.08h718Z"/>
  <path d="M3618,1.88v108h-767c-25.49,0-63,33.39-63,59v181h830v108h-830v181c0,19.16,33.83,57,53,57h777v108l-10.9,2.1c-276.3-7.68-558.65,10.84-834.01-2.18-16.98-.8-30.22,1.11-47.49-2.51-64.84-13.59-115.17-76.45-117.57-142.43,7.7-167.28-10.31-343.87-.12-510.08,3.98-64.82,45.64-121.4,108.58-139.42,26.65-7.63,49.53-4.02,76.42-7.58l825.1.1Z"/>
  <path d="M1508,3.88c.55,14.29-.71,28.79-.08,43.08,2.69,60.98,3.59,74.11,54.25,107.75,69.7,46.28,146.26,92.41,218,136,9.89,6.01,53.8,34.43,61.03,35.15,7.52.75,32.36-16.22,40.63-21.15,88.47-52.6,174.46-109.87,262-164,15.32-11.8,32.17-38.27,32.17-57.83V3.88h178c.18,17-.21,34.06-.08,51.08.68,92.62-11.48,104.45-86.09,153.75-100.81,66.61-207.63,124.5-307.79,192.17l345.74,216.22c19.69,11.25,48.22,53.91,48.22,75.78v111h-178v-85c0-29.07-21.82-51.12-43.37-66.63-75.68-54.48-175.44-111-256.8-159.2-5.87-3.48-30.69-19.57-34.69-19.23-73.92,46.37-149.22,90.63-222.98,137.23-27.98,17.68-85.75,47.71-99.82,76.18-8.44,17.09-9.55,42.47-10.43,61.57-.84,18.27.79,36.81.08,55.08h-178v-103c0-24.35,19.86-59.91,39.06-74.94,116.06-79,237.47-150.31,356.93-224.09-19.56-15.07-41.2-27.78-62.16-40.81-83.85-52.1-171.48-102.07-253.66-156.34-13.88-9.16-31.28-19.49-43.22-30.78-50.04-47.36-32.12-108.45-38.95-170.05h180Z"/>
</svg>