<?xml version="1.0" encoding="UTF-8"?>
<svg id="Layer_1" data-name="Layer 1" xmlns="http://www.w3.org/2000/svg" viewBox="0 0 469.31 311.11">
  <defs>
    <style>
      .cls-1 {
        fill: #005bab;
      }

      .cls-2 {
        fill: #ed1c24;
      }
    </style>
  </defs>
  <path id="path15-9" class="cls-2" d="M138.77,10.51L10.5,134.6c-6.41,5.44-10.5,11.83-10.5,20.97s4.1,15.51,10.5,20.99l128.28,124.06c.82.84,1.62,1.18,2.3,1.18,1.22,0,2.05-1.1,2.02-2.4-.04-.76-.37-1.64-1.13-2.4-30.11-37.41-52.02-80.31-52.02-140.97S111.85,51.58,141.96,14.15c.76-.75,1.09-1.62,1.13-2.4.04-1.33-.8-2.4-2.02-2.4-.68-.01-1.47.32-2.3,1.16"/>
  <path id="path17-4" class="cls-1" d="M237.39,0c-50.23,0-69.85,71.18-69.85,156.01s19.62,155.09,69.85,155.09c30.14,0,55.83-17.65,55.92-32.16.01-3.18-1.21-6.22-3.88-8.87-14.29-13.8-19.87-27.6-19.91-39.77-.09-23.24,20.07-40.55,38.65-40.55,25.55,0,40.62,20.08,40.62,46.08,0,24.64-10.5,45.16-21.92,61.6-.45.67-.65,1.42-.65,2.08,0,1.29.77,2.35,1.91,2.35.69,0,1.5-.37,2.38-1.26l128.31-124.06c6.41-5.48,10.5-11.89,10.5-20.99s-4.1-15.53-10.5-20.97L330.5,10.5c-.88-.88-1.69-1.25-2.38-1.25-1.15,0-1.9,1.07-1.91,2.36,0,.66.2,1.4.65,2.08,11.42,16.41,21.92,36.96,21.92,61.58,0,25.99-15.07,46.08-40.62,46.08-18.58,0-38.74-17.3-38.65-40.54.04-12.17,5.63-25.98,19.91-39.77,2.66-2.67,3.89-5.68,3.88-8.86-.08-14.53-25.77-32.19-55.92-32.19"/>
</svg>