<?xml version="1.0" encoding="UTF-8"?>
<svg id="Layer_1" data-name="Layer 1" xmlns="http://www.w3.org/2000/svg" viewBox="0 0 971.84 212.08">
  <defs>
    <style>
      .cls-1 {
        fill: #336733;
      }
    </style>
  </defs>
  <path class="cls-1" d="M206.25,123.85c5.24-4.81,8.98-5.66,16.21-4.62,7.05,1.01,8.08,8.29,8.51,14.36.6,8.58.32,19.78.03,28.49-.57,16.91-2.15,40.75-20.87,47.75-6.81,2.55-27.57,2.49-35.26,1.72-20.4-2.04-16.11-25.48-17.65-40.29-1.02-9.77-5.27-33.4-12.37-39.99-.75-.7-2.93-1.99-2.82-.24.22,3.7,1.77,8.17,2.03,12.21.7,10.77.1,23.78-1.68,34.4-2.11,12.66-7.56,32.58-22.98,33.96-16.69,1.49-35.46-1.12-52.37.03-4.91-.29-9.62-4.56-11.29-9.05-4.89-13.19,5.06-30.73,11.66-41.96,6.53-11.11,8.6-14.9,20.76-20.42,13.89-6.31,29.65-9.64,44.35-13.6.87-.11,1.16-1.49.87-1.92-.25-.37-7.7-1.4-8.9-1.53-17.41-1.86-44.66-2.03-59.68,7.91-13.36,8.85-15.97,31.18-23.24,44.88-2.59,4.88-10.21,17.74-16.94,13.51-2.71-1.7-10.13-10.1-12.48-12.93C-.01,161.91,1.33,157.97.72,139.66c-.79-23.69-4.82-39.12,19.97-50.65,11.2-5.21,38.47-12.9,50.42-11.61,5.36.58,14.9,6.33,19.72,9.25,13.21,8,25.96,18.9,39.34,26.24.94.51,4.86,3.27,5.24,1.36.27-1.39-7.84-12.69-9.25-14.64-9.16-12.67-27.36-35.06-43.86-36.46-20.87-1.77-30.54,3.98-49.19,9.3-6.03,1.72-18.97,4.93-20.6-4.07s5.86-24.31,9.61-32.35c6.45-13.81,14.59-29.34,30.54-33.51,12.4-3.25,43.73-3,56.32-.12,22.58,5.17,28.65,21.11,34.2,41.54,6.2,22.78,2.75,42.46,1.87,65.2-.34,8.74,3.61,1.08,5.2-2.42,7.86-17.41,11.48-37.94,10.07-57.02-.78-10.58-4.72-19.02-4.28-30.51.42-10.96,3.69-15.04,14.34-17.4,9.28-2.05,36.33-2.22,46.12-1.16,12.73,1.37,14.02,10.78,14.51,21.58.6,13.39-2.27,26.28-5.66,39.13-8.73,33.15-17.97,55.28-55.68,60.22-5.77.75-11.17.13-16.73.55-2.9.22-2.65,1.24-.37,2.45,6.13,3.24,28.9,8.88,35.96,9.29,10.91.64,11.13-3.93,17.74-10.01h0Z"/>
  <path class="cls-1" d="M789.5,116.49h21.5c.27,0,2.12,1.91,2.26,2.62-1.18,5.56-.78,11.28-.81,16.93-.02,3.75,2.43,6.13-1.57,8.33l-57.71,1.08-1.67,6.04h49.5c.33,0,1.52,1.32,2.5,1v16.5c0,.18-2.32,2.5-2.5,2.5h-50.5c1.65,1.48.6,8,1,8h62c2.49,4.73-.05,9.44-.04,13.55.02,4.68,2.49,9.4.04,14.45h-86.5c-.35,0-1.19-1.12-1.36-1.66-1.56-4.85,5.94-27.75,5.95-35.84.03-14.22-5.22-32.32-6.09-47.02-.08-1.36-.31-6.48,1.5-6.48h33c3.79-4.9,2.49-11.32,9.94-12.06,2.96-.29,24.57-.24,25.62.5,5.16,3.61-4.63,8.88-6.06,11.56ZM777.5,120.49h-15c-.38,0-1.69,5.99-3,6.99,7.9.69,13.69.32,18-6.99Z"/>
  <path class="cls-1" d="M757,7.49c4.84.82,1.52,8.52,1.45,12.45-.05,2.99,2.56,15.55-1.45,15.55h-58.5c-.38,0-.99,7,.5,7h49c.11,0,1.5,1.39,1.5,1.5v17c0,.11-1.39,1.5-1.5,1.5h-50.5v7h59.5c.38,0,3.5,2.27,3.5,2.5v25c0,.11-1.39,1.5-1.5,1.5h-85c-.36,0-1.16-1.1-1.34-1.66-1.95-6.06,5.13-26.22,5.47-34,.6-13.56-5.07-32.53-5.62-46.85-.06-1.6-.55-8.49,1.49-8.49h83Z"/>
  <path class="cls-1" d="M947,7.49c12.6,1.49,23.18,10.61,24.49,23.51,1.77,17.45-2.97,31.98-21,37l19.49,21.51c.8,4.01,2.2,8.44-2.93,9.03-3.14.36-27.3.23-28.56-.54l-13.99-28.51h-21c1.15,7.55,6.65,18.38,6.96,25.63.05,1.15-.41,3.37-1.46,3.37h-31c-.35,0-1.19-1.12-1.36-1.66-1.5-4.67,5.47-25.66,5.91-32.8.9-14.79-5.13-34.65-6.04-50.06-.08-1.36-.31-6.48,1.5-6.48h69-.01ZM902.5,48.49h40.5c4.94,0,11.2-6.83,3.52-10.52-1.27-.61-8.47-2.48-9.52-2.48h-33.5l-1,13Z"/>
  <path class="cls-1" d="M452.15,85.13c-27.19,26.42-90.5,15.67-94.64-26.16-4.53-45.75,35.42-63.77,75-53,35.21,9.59,45.57,53.96,19.64,79.16ZM416.16,31.87c-5.71-.22-15.07.73-20.68,2.1-13.86,3.4-29.16,14.77-13.46,27.49,15.54,12.58,51.3,12.8,63.48-4.47,11-15.58-18.14-24.7-29.34-25.13h0Z"/>
  <path class="cls-1" d="M277.86,61.13c11.63,11.9,39.97,10.12,54.85,6.07,6.9-1.88,13.05-5.46,19.78-7.71-.25,4.34,6.75,27.96,5.06,29.48-28.23,14.55-82.07,17.4-97.74-16.29-3.45-7.43-7.21-21.57-5.3-29.5.06-.23.88-1.22,1.57-3.74,8.53-30.87,37.92-37.91,66.9-35.94,5.29.36,31.57,5.33,34.06,8.94,1.55,2.25-4.72,25.52-7.12,29.01-17.76-9.65-41.36-13.22-60.88-6.91-11.44,3.7-21.73,15.81-11.2,26.58h.02Z"/>
  <path class="cls-1" d="M508.49,152.48c-3.02-.98-5.36-2.78-8.47-4.02-16.77-6.69-42.35-9.43-58.84-.8-11,5.75-13.46,16.72-3.69,25.33,15.8,13.91,54.26,7.63,71.48-2.51,1.16.61,1.13,1.54,1.48,2.55.95,2.76,5.45,24.2,4.93,25.78-.76,2.32-15.92,7.23-19.05,8.01-35.25,8.87-83.89.19-83.93-44.84-.04-45.72,49.66-53.3,85.1-45,3.1.72,17.17,4.82,17.89,7.18,1.24,4.03-6.85,22.64-6.9,28.33h0Z"/>
  <path class="cls-1" d="M766,7.49h31c1.55,0,1.43,3.01,1.29,4.22-1.53,14.17-9.85,32.14-12.58,46.57-1.45,13.34,24.98,14.47,34.34,14.26,6.43-.15,27.12-2.74,29.25-9.75l-12.57-52c-.31-1.05,1.93-3.29,2.28-3.29h30c2.14,0,1.62,10.33,1.54,12.54-.41,12.15-1.7,27.81-3.05,39.95-2.64,23.74-13.11,37.13-37.61,40.39-19.84,2.64-46.57-.24-56.77-19.99-6.08-11.77-8.12-48.75-8.65-63.34-.07-1.82-.49-9.55,1.54-9.55h-.01Z"/>
  <path class="cls-1" d="M500,7.49c.84.26,2.38,2.88,2.02,4.1-1.62,9.6-14.61,43.62-12.32,51.19,3.29,10.87,37.81,9.97,46.85,8.27,9.78-1.85,17.06-3.51,15.69-14.8-1.58-13.01-10.66-31.16-11.66-43.38-.11-1.39-.25-5.37,1.42-5.37h31.5c1.85,7.18-.48,14.39-.99,21.51-2.88,39.97.78,72.48-51.51,72.49-52.93.01-48.47-34.51-51.51-74.49-.49-6.46-3.29-13.16-.99-19.51h31.5,0Z"/>
  <path class="cls-1" d="M599,207.49c-2.29-.74-5.74-19.69-7.11-20.06l-35.45.5-6.6,19.61c-8.57-1.18-20.74,1.46-28.81-.07-1.6-.3-2.75-1.08-3.37-2.61l45-85.71c1.35-4.3,20.77-3.09,22.36-1.67l44.71,84.29c1.26,1.3.89,5.72-.72,5.72h-30.01ZM582.5,166.49l-8.01-17c-1.56-1.18-8.02,16.17-9.99,17h18Z"/>
  <path class="cls-1" d="M660.5,153.49h50.5c3.32,0,3.24,16.96,2,19-.27.45-2.72,2-3,2h-49.5c.31,2.67.81,5.41,1.49,8.01,2.06,7.88,7.01,17.06,5.51,24.99h-31.5c-.36,0-1.17-1.11-1.35-1.66-1.94-5.99,5.5-26.29,5.75-33.95.44-13.67-5.01-33.38-5.89-47.9-.09-1.47-.44-7.49,1.49-7.49h84c.56,0,1.53,1.68,1.5,2.5-1.15,6.89.82,15.57.05,22.06-.2,1.69-.09,2.28-1.63,3.37-5.16,3.64-47.84-.54-56.93,1.07-3.84.51-2.26,5.11-2.5,8h.01Z"/>
  <path class="cls-1" d="M612,7.49c.48.15,1.21,1.1,1.38,1.67l-8.88,61.33c3.96.75,7.76-.91,11.46-1.04,12.28-.43,34.69-1.54,46.09,0,1.32.18,4.45,1.28,4.45,2.55v25c0,.11-1.39,1.5-1.5,1.5h-84.5c-.26-1.49-.86-2.6-.76-4.21.59-10.02,5.64-21.91,5.82-32.25.15-8.82-2.07-21.75-3.18-30.91-.38-3.14-5.11-23.62-1.38-23.62,5.92,0,27.23-1.18,31,0v-.02Z"/>
</svg>