<?xml version="1.0" encoding="UTF-8"?>
<svg id="layer" xmlns="http://www.w3.org/2000/svg" viewBox="0 0 600 177.54">
  <defs>
    <style>
      .cls-1 {
        fill: #231f20;
      }
    </style>
  </defs>
  <g>
    <path class="cls-1" d="M558.8,1.64v69.3L390.9,2.94c-4.2-1.8-9.2-4.5-16.6-1.8h0l-100.8,36.6L172.7,1.14h-45.8l115.5,44.7-65.6,25.2H19.2V1.24H0v88.8h127.4l-.4.2h49l97.4-36.5,97.4,36.5h48.9l-115.3-44.5,70.4-27.1,179.2,71.3,23.9.3.1-88.7h-19.2v.1Z"/>
    <g>
      <path class="cls-1" d="M2.6,146.24h3.4v28.5h37.8v2.8H2.6v-31.3Z"/>
      <path class="cls-1" d="M138.9,146.24v18.6c0,8.4-3.3,12.6-16.7,12.6h-15.4c-13.3,0-16.7-4.2-16.7-12.6v-18.6h3.4v18.3c0,7.6,2.4,10.2,13.7,10.2h14.6c11.3,0,13.7-2.7,13.7-10.2v-18.3h3.4Z"/>
      <path class="cls-1" d="M241.9,177.54h-5.2l-22.6-13.9-22.6,13.9h-5.2l25.1-15.5-24.9-15.7h5.2l22.5,14.1,22.8-14.1h5l-25,15.6,24.9,15.6Z"/>
      <path class="cls-1" d="M292.8,177.54v-31.2h3.4v31.2h-3.4Z"/>
      <path class="cls-1" d="M351.3,146.24h3.4v28.5h37.8v2.8h-41.2v-31.3h0Z"/>
      <path class="cls-1" d="M457.1,177.54c-16.3,0-19.3-6.5-19.3-15.7s3.2-15.6,19.3-15.6h14c16.1,0,19.3,6.4,19.3,15.6s-3,15.7-19.3,15.7h-14ZM457.7,148.84c-13.6,0-16.4,4.2-16.4,13s2.7,13,16.4,13h13c13.8,0,16.4-4.6,16.4-13,0-8.9-2.8-13-16.4-13h-13Z"/>
      <path class="cls-1" d="M540.8,177.54v-31.2h4.7l37.2,28.6v-28.6h3.4v31.2h-4.7l-37.1-28.6v28.6h-3.5Z"/>
    </g>
  </g>
  <path class="cls-1" d="M592.9,1.14c2.1,0,3.5.1,4.3.2.9.2,1.5.4,1.8.8.3.3.4.5.5.9s.3.8.3,1.4c.1.8.2,1.7.2,2.8,0,1.5-.1,2.6-.2,3.4-.2.8-.3,1.3-.7,1.6-.3.3-.9.6-1.7.8s-2.2.2-4,.2c-.9,0-1.9,0-3-.1-1.1,0-1.8-.1-2.2-.1-.6-.1-1-.2-1.4-.3-.3-.2-.7-.3-.9-.6-.3-.3-.6-.9-.7-1.5-.1-.7-.2-1.8-.2-3.4,0-1.9.1-3.3.4-4,.3-.9,1-1.5,2.2-1.6,1.1-.4,2.9-.5,5.3-.5ZM592,2.14c-1.7,0-2.9.1-3.6.2-.7.1-1.2.3-1.5.6s-.5.7-.6,1.3-.2,1.5-.2,2.9c0,1.5,0,2.5.1,3.1s.3,1,.5,1.3.4.3.8.4c.3.1.8.2,1.4.2.3,0,1.5.1,3.8.1,2.1-.1,3.3-.1,3.7-.1s.8-.1,1.1-.2c.3-.1.6-.3.9-.5.3-.3.4-.5.5-.9.2-.7.3-1.9.3-3.5s-.1-2.8-.3-3.4c-.1-.3-.3-.6-.5-.9-.3-.3-.6-.3-.9-.4-.4-.1-.9-.1-1.3-.2-.6.1-2,0-4.2,0ZM588.1,10.84V3.74h4.8c1.3,0,2.1,0,2.5.1.6.1.9.3,1.2.6s.3.9.3,1.5-.1,1-.2,1.3c-.2.3-.4.4-.9.5.4.1.7.3.8.5.1.3.2.8.2,1.5v1.1h-1.2v-.8c0-.6,0-1-.1-1.2,0-.2-.1-.3-.3-.4-.2-.1-.3-.2-.5-.3-.3,0-.9,0-1.9-.1h-3.6v2.7l-1.1.1h0ZM589.3,7.14h5.5c.3,0,.5-.1.7-.2.3-.2.3-.5.3-1s-.1-.8-.3-.9c-.2-.1-.3-.2-.7-.2s-.9-.1-1.8-.1h-3.6l-.1,2.4h0Z"/>
</svg>